<svg xmlns="http://www.w3.org/2000/svg" width="1000" height="1000"><g clip-path="url(#a)"><path fill="#f7c2ff" d="M0 0h1000v1000H0z"/><svg xmlns="http://www.w3.org/2000/svg" xmlns:xlink="http://www.w3.org/1999/xlink" width="16" height="16" transform="translate(150 150) scale(43.75)"><svg xmlns="http://www.w3.org/2000/svg" width="16" height="16" fill="none" viewBox="0 0 16 16"><g fill="#000" clip-path="url(#b)"><path d="m8 0 3.293 3.293a1 1 0 0 1 0 1.414l-1.96 1.96L8 5.333A3.77 3.77 0 0 1 8 0"/><path fill-rule="evenodd" d="m8 16-5.334-5.333a3.77 3.77 0 0 1 0-5.334L7.293 9.96a1 1 0 0 0 1.414 0l4.626-4.627a3.77 3.77 0 0 1 0 5.334z" clip-rule="evenodd"/></g><defs><clipPath id="b"><path fill="#fff" d="M0 0h16v16H0z"/></clipPath><clipPath id="a"><rect width="1000" height="1000" rx="500" ry="500"/></clipPath></defs></svg></svg></g></svg>